<?xml version="1.0" encoding="UTF-8"?>
<svg xmlns="http://www.w3.org/2000/svg" xmlns:xlink="http://www.w3.org/1999/xlink" width="512" height="640" viewBox="0 0 512 640">
  <polygon points="386.64 384 258.64 640 130.64 384" fill="#E31837"/>
  <rect y=".78" width="512" height="512" rx="64" ry="64" fill="#E31837"/>
  <g transform="translate(121,50) scale(5.4)">
    <path d="M47.4237,17.7514c.1514-.1129.2982-.2269.4418-.3422A24.147,24.147,0,0,1,28.4929,49c4.2379-4.0468,7.4072-11.0147,7.8033-18.199.4057-7.3575-2.8121-12.1073-8.8939-12.7535-9.2008-.978-18.7537,8.1751-22.833,19.9141A24.1286,24.1286,0,0,1,25,1a24.2669,24.2669,0,0,1,4.0935.3474,7.7282,7.7282,0,0,0-3.293,5.2507c-.9033,4.1737.3639,8.5572,2.9774,9.122s5.5856-2.901,6.4881-7.0737a8.2132,8.2132,0,0,0-.485-5.58,24.1443,24.1443,0,0,1,6.4849,4.242c-.3567.2215-.7152.4629-1.0738.73-4.359,3.2449-6.8428,8.4686-4.8463,11.15S43.0645,20.9963,47.4237,17.7514ZM16.3075,18.829c1.0107-1.1858.1088-3.6166-1.7218-5.1768s-3.7857-1.5637-4.797-.3787-.694,3.1117,1.1375,4.6725S15.2976,20.0139,16.3075,18.829Zm5.8673-2.8025c1.9652-.9027,2.1992-4.6027.75-7.7575s-3.9415-4.3752-5.9067-3.4725-2.66,3.5865-1.211,6.74S20.2092,16.9283,22.1748,16.0264ZM36.8767,36.8748c5.4194-3.7533,8.0714-2.7272,8.07-4.1077-.0012-1.5215-4.1835-4.4018-7.1363-4.6693q.0526,1.2294-.0191,2.546A35.5182,35.5182,0,0,1,36.8767,36.8748ZM13.7513,43.64a11.7732,11.7732,0,0,0,.1369,2.9053,24.2,24.2,0,0,1-6.0437-4.4572c2.8818-10.8056,11.13-21.31,19.0641-20.5377,3.321.3237,5.6119,3.24,5.2622,9.5763C31.7667,38.463,26.47,49.1693,20.8688,48.86c-2.5868-.1424-3.3957-2.7831-3.2018-5.1163.4227-5.0567,2.9968-6.4472,3.1659-8.4956a1.4981,1.4981,0,0,0-2.0466-1.4424C17.2275,34.3033,14.1251,38.1605,13.7513,43.64ZM28.5285,26.753c-1.61.0521-3.3465,2.9027-2.6531,4.471,1.2721,2.0451,3.9272-.6167,3.9715-2.795C29.858,27.914,29.8238,26.7521,28.5285,26.753ZM44.2655,45.4881h.5007l.5009,1.203.5007-1.203h.5006v2.0648h-.5006v-.9962l-.3356.8054h-.33l-.3356-.8054v.9962h-.5007Zm-1.884,0h1.5743v.4648H43.419v1.6h-.5007v-1.6h-.5368Z" fill="#f8f8f8"/>
  </g>
  <text x="256" y="415" text-anchor="middle" fill="#f8f8f8"
        font-family="Georgia, 'Times New Roman', serif" font-style="italic"
        font-size="56" font-weight="bold">Chick-fil-A</text>
</svg>
