<?xml version="1.0" encoding="UTF-8"?><svg id="a" xmlns="http://www.w3.org/2000/svg" width="512" height="640" viewBox="0 0 512 640"><polygon points="386.64 384 258.64 640 130.64 384 386.64 384" fill="#1f6063"/><rect y=".78" width="512" height="512" rx="64" ry="64" fill="#1f6063"/><path d="M92.18,205.33v18.57h-33.23v107.36h394.09v-107.36h-33.21v-18.57h-59.31l-104.42-44.77-104.4,44.77h-59.53ZM149.72,196.57l106.29-45.53,106.3,45.53h66.27v18.57h33.21v124.86H50.21v-124.86h33.21v-18.57h66.31Z" fill="#fff"/><polygon points="354.19 229.78 354.18 249.96 367.23 249.99 369.96 229.79 354.19 229.78 354.19 229.78" fill="#fff"/><polygon points="115.88 298.55 115.88 229.78 97.06 229.78 97.06 314.93 144.99 314.93 144.99 298.55 115.88 298.55 115.88 298.55" fill="#fff"/><polygon points="305.25 314.93 350.02 314.93 350.02 298.53 324.16 298.53 324.16 287.84 350.02 287.84 350.02 272.07 324.16 272.07 324.16 261.32 350.02 261.32 350.02 244.84 305.25 244.84 305.25 244.91 305.25 314.93 305.25 314.93" fill="#fff"/><path d="M187.98,261.32h-16.55v37.16h16.55v-37.16h0ZM206.83,305.98c0,4.95-4,8.95-8.95,8.95h-36.34c-4.94,0-8.94-4-8.94-8.95v-52.17c0-4.95,4-8.96,8.94-8.96h36.34c4.94,0,8.95,4.02,8.95,8.96v52.17h0Z" fill="#fff"/><path d="M275.65,244.84v53.71h-11.36v-53.71h-16.54v53.71h-11.36v-53.71h-18.85v61.14c0,4.95,4.02,8.95,8.96,8.95h22.28c3.75,0,7.25-2.59,7.25-6.34,0,3.75,3.51,6.34,7.25,6.34h22.28c4.95,0,8.96-4,8.96-8.95v-61.14h-18.85Z" fill="#fff"/><path d="M416.09,288.45h0s-.12-.24-.12-.24c-.07-.14-.14-.29-.22-.43l-.12-.23c-2.98-5.97-9.66-10.98-20.4-15.27l-.38-.15c-2.12-.83-8.6-3.37-9.32-7.48-.2-1.15.27-2.96,1.55-4.06,1.36-1.38,3.43-2.08,6.18-2.08,4.38,0,9.36,1.79,11.94,2.85,5.44,2.26,10.2,4.27,10.26,4.28l.48.2v-15.3l-.17-.1c-.11-.07-10.38-6.55-20.77-8.04-1.19-.1-2.37-.15-3.51-.15-9.56,0-16.8,3.48-21.52,10.33-3.96,5.63-4.4,14.53-1.03,21.18,4.33,7.51,11.27,10.65,17.99,13.69,2.77,1.24,5.63,2.55,8.31,4.14l.03.02c3.03,1.82,4.57,4.6,3.93,7.08-.66,2.55-3.59,4.28-7.3,4.28-.51,0-1.02-.04-1.52-.09l-.18-.03c-7.13-1-21.59-6.38-21.74-6.43l-.46-.18v16.79l.24.07c.13.05,14.13,4.68,26.56,4.68h0c6.78,0,11.91-1.38,15.21-4.06.08-.06,7.67-6.16,8.01-16.54.09-2.88-.56-5.81-1.94-8.74h0Z" fill="#fff"/></svg>