<?xml version="1.0" encoding="UTF-8"?><svg id="a" xmlns="http://www.w3.org/2000/svg" width="512" height="640" viewBox="0 0 512 640"><polygon points="386.64 384 258.64 640 130.64 384 386.64 384" fill="#1f6063"/><rect y=".78" width="512" height="512" rx="64" ry="64" fill="#1f6063"/><path d="M352,295.96l-4.78.83c-2.49.42-4.78,2.49-5.19,4.78l-3.11,20.76c-.21,1.04.21,2.08.83,2.7.62.62,1.66,1.04,2.7.83h.42l4.57-.62c2.49-.42,4.78-2.49,5.19-4.78l3.11-20.55c.21-1.04-.21-2.08-.83-2.7-.42-1.25-1.45-1.45-2.91-1.25M351.17,300.53l-3.11,19.93c0,.42-.42.83-.83.83l-2.49.42-.42-.21-.21-.42,3.11-19.93c0-.42.62-.83.83-.83l2.49-.42h0l.42.21.21.42" fill="#f8f8f8"/><path d="M374.42,292.22l-4.57.62c-2.49.21-4.57,2.28-4.98,4.57l-3.11,21.38c-.21,1.04.21,2.08.83,2.7.62.62,1.66,1.04,2.7.83h.42l4.57-.62c2.49-.42,4.57-2.49,4.98-4.78l3.11-21.18c.21-1.04-.21-2.08-.83-2.7-.83-.62-1.87-1.04-3.11-.83M373.38,296.58l-3.11,20.55c0,.42-.42.83-.83.83l-2.7.42-.42-.21-.21-.42,3.11-20.55c0-.42.42-.83.83-.83l2.49-.42.42.21.42.42" fill="#f8f8f8"/><path d="M422.59,285.79c-.62-.62-1.66-1.04-2.91-1.04l-4.15.62c-2.28.21-4.36,2.28-4.57,4.36l-1.04,7.06c-.42,2.91,1.45,3.94,3.11,4.78l2.91,1.66c.83.42.42,2.28.21,3.32l-.62,4.15c0,.42-.42.83-.83.83l-2.28.42-.42-.21v-.42l.62-4.57-4.57.62-.62,4.78c-.21,1.04.21,1.87.83,2.49.62.62,1.45.83,2.49.83h.42l4.15-.62c2.28-.42,4.36-2.28,4.57-4.57l.83-6.85c.42-2.7-1.25-3.94-3.11-4.78l-2.91-1.45c-.42-.21-.62-.62-.62-1.45l.83-6.23c0-.42.42-.62.83-.83l2.28-.42.42.21v.42l-.83,4.98,4.36-.62.62-5.19c.83-.83.62-1.66,0-2.28" fill="#f8f8f8"/><path d="M401.62,289.32c-.62-.62-1.66-1.25-2.91-1.04l-11.21,1.87-.62,3.74,2.7-.42-3.32,22.42-2.7.42-.42,3.74,2.7-.42h0l8.72-1.25c2.28-.42,4.36-2.49,4.78-4.57l3.11-21.8c0-1.25-.21-2.08-.83-2.7M394.77,313.81c0,.42-.42.83-.83.83l-2.91.42,3.32-22.42,3.11-.42h0l.42.21v.42l-3.11,20.97Z" fill="#f8f8f8"/><polygon points="334.14 305.72 335.18 298.66 317.12 301.56 316.5 305.3 320.44 304.68 317.33 325.44 313.38 326.06 312.76 329.8 325.63 327.93 326.05 324.19 322.31 324.82 323.76 315.89 329.16 315.06 329.78 311.12 324.39 311.95 325.63 303.85 325.63 303.85 330.61 303.02 329.99 306.34 334.14 305.72" fill="#f8f8f8"/><path d="M363,232.01c0,.21,0,.62-.21,1.25.21-.62.21-.83.21-1.25" fill="#f8f8f8"/><path d="M436.29,211.46c-5.19-8.51-8.51-16.19-4.36-26.57,0,0-8.93.21-15.57,8.72-4.36,5.61-4.15,12.25-1.66,18.48,2.7,6.23,8.1,9.97,11.63,15.57,3.94,6.23,2.49,16.19-4.15,20.55-5.4,3.53-15.99,2.49-18.48-3.94,1.45-1.66,6.44-7.06,6.44-7.27,7.47-8.3,1.66-15.57-6.85-11.42-2.91,1.45-4.98,4.15-6.44,7.06-.62,1.45-1.25,3.32-1.45,4.98-.21,2.7-.42,4.78-.42,6.64-2.91,3.32-6.44,6.64-8.72,8.3-12.04,8.72-20.14,2.28-22.42-3.11-.62-1.04-.83-2.49-1.04-3.94,3.11-1.45,5.81-2.91,8.3-4.57,3.74-2.28,8.1-5.19,12.25-8.51.21-.21.42-.42.42-.42h0c2.91-2.49,5.4-4.98,7.27-7.89,7.89-11.42,1.25-22.01-7.06-22.42-12.46-.62-23.25,6.44-30.73,16.4-5.4,7.27-9.34,15.78-10.59,24.71-.21.83-.21,1.45-.21,2.28-3.53.21-6.85,0-9.34-.62,1.25-4.15,2.28-8.3,3.11-11.42,1.87-7.47,3.32-23.46-5.4-23.05-8.72.42-13.91,8.93-15.36,19.93-1.66,11.83,6.85,17.44,6.85,17.44.21.21-7.68,22.21-18.48,20.97-5.61-.62-3.32-10.59-2.49-16.61,1.87-13.7,9.97-37.16,9.97-37.16l-11.63,1.87-9.14,1.45s-.42.62-1.04,2.28c-1.25,3.11-3.74,9.14-5.81,18.69-.21,1.25-.62,2.7-.83,3.94-.21.83-.42,1.87-.62,2.7-.42,1.87-.83,3.94-1.04,5.81-.21,1.04-.42,2.28-.42,3.32-.62,4.57-.83,8.72-.83,12.25v.83c-2.91,3.74-6.64,6.44-10.59,5.81-3.11-.42-3.74-3.53-3.53-7.27.21-3.11.83-6.44,1.25-9.14,1.87-13.7,9.97-37.16,9.97-37.16l-20.76,3.53s-.21.42-1.04,2.08c-.21.42-.42.83-.62,1.45-8.1,15.57-17.65,17.44-17.65,17.44h0c0-.42,0-.83-.21-1.25-.21-1.25-.62-2.7-1.04-3.94-1.87-5.4-6.23-8.93-11.42-10.38l-.42-.21c-1.66-.42-3.53-.62-5.4-.62h-1.87c-10.59,1.04-19.72,7.47-26.16,16.19-1.45,1.87-2.91,3.94-4.15,6.23-3.74,6.23-6.23,13.5-7.06,20.76-.21,2.08-.42,4.36-.21,6.44h0v.21c.21,3.53.83,7.47,2.49,10.59.21.21.21.62.42.83h0c.21.42.42.62.62,1.04l.21.42c.42.42.83.83,1.25,1.25h0c.21.21.42.42.62.62,3.53,3.32,8.3,4.98,13.29,5.19,6.23.42,12.87-1.45,18.06-4.78,2.91-1.87,6.02-4.36,8.1-7.06l.42-.42c4.36-5.4,7.68-11.42,9.76-18.06.21-.42.21-.83.42-1.45s.21-1.04.42-1.66c1.04-3.94,1.87-8.3,2.08-12.87,6.85-2.28,11-6.02,12.04-7.06-.21,1.25-.42,2.08-.83,3.32-.62,2.7-1.25,5.61-1.66,8.51-.21,1.04-.42,2.28-.42,3.32-.62,4.57-.83,8.72-.83,12.25h0c0,13.91,10.38,16.4,19.31,15.36,2.08-.21,4.15-.62,6.02-1.25,5.19-1.45,9.55-4.36,13.29-8.3,5.19,5.19,14.74,4.57,21.38,2.7,13.5-3.74,20.97-17.44,25.74-30.31,2.91.62,6.64.83,11.21.42,0,3.53.62,6.85,1.87,9.97.62,1.45.83,2.08,1.87,3.32,12.04,15.16,33.01,3.32,43.6-6.85,2.08-1.87,4.57-4.36,6.85-6.85l.83-.83c8.72,17.23,44.85,17.44,50.04-9.55,2.7-12.04-6.23-20.14-11.21-28.24M216.01,278.1c-4.36,2.28-9.76,2.28-13.5-.83-.83-.83-1.66-1.66-2.28-2.7l-.21-.42c-3.11-5.81-2.08-14.95-.21-20.35.42-1.04.83-2.08,1.25-2.91.21-.42.42-.83.62-1.25,2.91-5.61,6.85-9.14,10.17-10.8h0c3.11-1.66,5.61-2.08,6.64-1.66-1.45,1.66-5.81,7.68-1.04,13.7,1.66,2.28,4.36,3.53,7.68,3.74h.83v.21c.83,13.5-6.64,21.59-9.97,23.25M363,231.6c0-.42,0-.83.21-1.25.62-4.78,3.11-11.21,4.36-13.08,1.66-2.49,4.98-6.85,8.1-5.4.42.21.83.42,1.04.83,1.25,1.25,1.66,2.7,1.66,4.36,0,1.04,0,2.28-.42,3.74-.42,1.87-1.87,4.36-3.94,6.85-2.08,2.49-6.02,6.64-11.42,10.38,0-2.49.21-4.98.42-6.44" fill="#f8f8f8"/><path d="M237.39,316.51c-7.27,1.25-17.65,2.91-28.65,4.78-8.1,1.25-31.35,5.61-56.06,10.17l17.44-109.21s25.74-1.45,37.58-16.61c8.3-10.59,9.55-23.67,3.32-34.05-10.17-17.02-53.77-26.78-62.08,36.75,0,0-14.12-1.04-26.37-13.91.83,5.19,2.49,19.31,23.46,25.54l1.45.42-19.31,115.64c-23.46,4.36-44.22,8.3-49.62,9.14,0,0-8.3.62-11.63,7.06-9.14,17.86,3.32,42.98,33.01,42.98,31.14,0,44.85-28.86,49.62-42.35,50.45-6.64,109.41-14.33,111.7-14.74,2.7-.42,5.19-1.04,7.47-1.66,12.46-3.74,19.52-10.8,19.52-31.35,0-.21-3.11,3.11-50.87,11.42M188.6,173.67c.83,0,1.45,0,2.28.21,4.15,1.04,6.64,5.19,6.23,10.8-.42,10.17-8.93,22.84-23.67,24.5h-1.66s3.94-35.5,16.82-35.5M94.97,380.25c-11.42,0-18.06-6.23-18.27-13.91,0-.42-.21-2.28.62-4.15,0,0,19.72-2.49,46.3-6.02-3.53,9.97-11.42,24.08-28.65,24.08" fill="#f8f8f8"/></svg>