<?xml version="1.0" encoding="UTF-8"?><svg id="a" xmlns="http://www.w3.org/2000/svg" width="512" height="640" viewBox="0 0 512 640"><polygon points="386.64 384 258.64 640 130.64 384 386.64 384" fill="#1f6063"/><rect y=".78" width="512" height="512" rx="64" ry="64" fill="#1f6063"/><g id="b"><g id="c"><path id="d" d="M68.86,429.98l4.04-8.21c2.96,2.16,8.25,4.6,12.29,4.6,5.03,0,7-2.44,7-5.06.09-3.07-2.42-4.23-7.72-5.95-8.89-2.7-13.91-5.86-13.91-14.16,0-7.57,5.75-12.98,16.15-12.98,5.39,0,10.32,1.72,14.27,4.5l-4.04,7.5c-2.33-1.45-6.29-3.62-10.68-3.62-3.86,0-6.19,1.54-6.19,4.52,0,2.43,1.71,4.06,7.37,5.77,9.6,2.89,14.36,6.49,14.36,14.07,0,8.57-6.91,13.8-16.52,13.8-6.55,0-12.84-2.16-16.42-4.78ZM141.82,424.84c-3.05,6.58-8.88,10.01-15.78,10.01-11.58,0-20.83-8.94-20.83-23.37s9.25-23.27,20.83-23.27c6.9,0,12.74,3.42,15.78,10.01v-9.29h8.98v45.09h-8.98v-9.19ZM128.27,396.69c-7.98,0-13.46,6.41-13.46,14.89s5.48,14.79,13.46,14.79,13.37-6.59,13.37-14.97-5.48-14.7-13.37-14.7ZM197.26,434.04h-8.97v-27.43c0-5.68-2.97-10.01-8.98-10.01-6.56,0-11.13,5.78-11.13,13.18v24.27h-8.98v-45.11h8.98v8.03c2.69-5.68,7.63-8.84,13.37-8.84s10.94,3.16,13.63,8.57c3.77-5.95,8.79-8.57,14.81-8.57,9.42,0,16.33,7.12,16.33,18.58v27.33h-8.98v-27.43c0-5.68-2.96-10.01-8.98-10.01-6.55,0-11.13,5.78-11.13,13.18v24.27ZM231.02,375.95h9.69l-5.66,17.76h-7.45l3.42-17.76ZM237.48,429.98l4.04-8.21c2.96,2.16,8.25,4.6,12.29,4.6,5.02,0,7-2.44,7-5.06.1-3.07-2.42-4.23-7.71-5.95-8.89-2.7-13.91-5.86-13.91-14.16,0-7.57,5.75-12.98,16.16-12.98,5.38,0,10.32,1.72,14.26,4.5l-4.03,7.5c-2.33-1.45-6.29-3.62-10.68-3.62-3.86,0-6.19,1.54-6.19,4.52,0,2.43,1.71,4.06,7.36,5.77,9.6,2.89,14.36,6.49,14.36,14.07,0,8.57-6.91,13.8-16.51,13.8-6.56,0-12.83-2.16-16.43-4.78h0ZM290.79,411.49c0-14.34,9.87-23.27,23.6-23.27,6.46,0,12.21,2.07,16.61,6.49l-5.48,6.76c-3.42-3.43-7.45-4.78-11.04-4.78-8.26,0-14.09,4.96-14.09,14.7s5.83,14.88,14.09,14.88c3.58,0,7.63-1.44,11.13-5.04l5.48,6.68c-4.4,4.42-10.04,6.85-16.69,6.85-13.64,0-23.6-8.92-23.6-23.27ZM349.58,434.76c-9.24.37-14.36-4.51-14.36-15.42v-46.64l8.98-1.8v48.44c0,4.32,2.33,6.31,5.56,6.31h2.33v8.84c-.83.18-1.67.27-2.52.27ZM355.87,415.45v-26.51h8.98v27.24c0,5.95,3.77,10.01,10.04,10.01s10.06-4.06,10.06-10.01v-27.24h8.98v26.51c0,12.36-7.64,19.31-19.04,19.31s-19.03-6.95-19.03-19.31h0ZM427.18,434.85c-6.91,0-12.75-3.43-15.79-10.01v9.29h-8.98v-61.43l8.98-1.8v27.33c3.04-6.59,8.88-10.01,15.79-10.01,11.57,0,20.82,8.93,20.82,23.37s-9.24,23.27-20.82,23.27ZM424.93,426.37c7.98,0,13.46-6.41,13.46-14.88s-5.48-14.79-13.46-14.79-13.36,6.58-13.36,14.97,5.47,14.7,13.36,14.7Z" fill="#f8f8f8" fill-rule="evenodd"/></g></g><path d="M398.48,197.44c5.24,5.27,5.24,13.76,0,19.02l-114.68,115.33-19.8-19.9c-5.33-5.36-5.33-14.01,0-19.37l85.11-85.56-84.39-84.81c-5.72-5.79-5.72-15.09,0-20.87l19.05-19.15,114.72,115.3Z" fill="#f8f8f8" fill-rule="evenodd"/><path d="M246.84,101.22c5.78,5.78,5.78,15.21,0,21.03l-84.26,84.72,84.29,84.72c5.78,5.82,5.78,15.25,0,21.06l-18.96,19.05-114.17-114.72c-5.55-5.59-5.55-14.6,0-20.19l114.13-114.75,18.96,19.08" fill="#f8f8f8" fill-rule="evenodd"/></svg>