<?xml version="1.0" encoding="UTF-8"?><svg id="a" xmlns="http://www.w3.org/2000/svg" width="512" height="640" viewBox="0 0 512 640"><polygon points="386.64 384 258.64 640 130.64 384 386.64 384" fill="#1f6063"/><rect y=".78" width="512" height="512" rx="64" ry="64" fill="#1f6063"/><polygon points="145.46 359.48 136.69 403.38 126.86 359.48 109.78 359.48 99.95 403.38 91.18 359.48 73.75 359.48 87.96 426.54 108.26 426.54 118.19 382.01 128.11 426.54 147.96 426.54 162.09 359.48 145.46 359.48" fill="#f8f8f8"/><path d="M183.41,371.82c-10.82,0-18.42,3.67-21.19,6.26v14.31c3.22-2.86,10.01-7.06,18.96-7.06,5.54,0,7.6,1.52,7.6,4.65,0,2.68-2.86,3.76-10.82,5.45-12.07,2.5-19.04,6.88-19.04,17.35,0,9.66,6.35,15.29,15.56,15.29,7.71,0,12.32-3.58,14.84-8.39v6.87h16.63v-32.9c0-15.11-7.87-21.82-22.53-21.82ZM181.09,417.24c-3.93,0-6.08-2.41-6.08-5.72,0-4.29,3.4-5.99,7.69-7.51,2.24-.84,4.48-1.71,5.99-3.04v7.42c0,5.63-2.95,8.85-7.6,8.85Z" fill="#f8f8f8"/><rect x="212.17" y="359.48" width="17.26" height="67.06" fill="#f8f8f8"/><path d="M298.68,372c-8.37,0-13.78,5.03-16.61,11.73-1.52-7.18-6.56-11.73-13.61-11.73-7.98,0-13.19,4.66-15.83,11.2v-9.68h-16.99v53.02h17.26v-29.42c0-7.24,2.41-11.36,7.6-11.36,4.2,0,5.63,2.86,5.63,7.33v33.44h17.26v-29.42c0-7.24,2.41-11.36,7.6-11.36,4.2,0,5.63,2.86,5.63,7.33v33.44h17.26v-35.85c0-11.18-5.28-18.69-15.2-18.69Z" fill="#f8f8f8"/><path d="M342.13,371.82c-10.82,0-18.42,3.67-21.19,6.26v14.31c3.22-2.86,10.01-7.06,18.96-7.06,5.54,0,7.6,1.52,7.6,4.65,0,2.68-2.86,3.76-10.82,5.45-12.07,2.5-19.04,6.88-19.04,17.35,0,9.66,6.35,15.29,15.56,15.29,7.71,0,12.32-3.58,14.84-8.39v6.87h16.63v-32.9c0-15.11-7.87-21.82-22.53-21.82ZM339.81,417.24c-3.93,0-6.08-2.41-6.08-5.72,0-4.29,3.4-5.99,7.69-7.51,2.24-.84,4.48-1.71,5.99-3.04v7.42c0,5.63-2.95,8.85-7.6,8.85Z" fill="#f8f8f8"/><path d="M387.47,388.5v-14.98h-16.9v53.02h17.26v-22.53c0-10.37,6.44-13.14,12.61-13.14,2.06,0,4.02.27,4.92.54v-18.24c-9.71-.47-15.61,5.73-17.88,15.34Z" fill="#f8f8f8"/><path d="M438.25,386.93v-13.41h-11v-10.28h-17.26v45.6c0,12.79,7.24,18.78,18.78,18.78,5.36,0,8.23-1.07,9.48-1.88v-13.32c-.98.72-2.59,1.25-4.65,1.25-3.84.09-6.35-1.61-6.35-7.24v-19.49h11Z" fill="#f8f8f8"/><path d="M310.38,199.84c4.82-.99,47.48-20.54,51.29-22.74,8.69-5.02,11.67-16.14,6.65-24.83s-16.14-11.67-24.83-6.65c-3.81,2.2-42.07,29.37-45.34,33.05-3.75,4.22-4.4,10.25-1.62,15.05,2.77,4.8,8.32,7.26,13.85,6.12Z" fill="#f8f8f8"/><path d="M361.67,243.12c-3.81-2.2-46.47-21.75-51.29-22.74-5.53-1.14-11.07,1.32-13.85,6.12-2.77,4.8-2.12,10.83,1.62,15.05,3.27,3.68,41.53,30.85,45.34,33.05,8.69,5.02,19.81,2.04,24.83-6.65,5.02-8.69,2.04-19.81-6.65-24.83Z" fill="#f8f8f8"/><path d="M268.14,242.89c-5.55,0-10.44,3.58-12.22,8.93-1.55,4.67-5.95,51.39-5.95,55.79,0,10.04,8.14,18.18,18.18,18.18s18.18-8.14,18.18-18.18c0-4.4-4.4-51.12-5.95-55.79-1.78-5.35-6.68-8.93-12.22-8.93Z" fill="#f8f8f8"/><path d="M225.91,220.38c-4.82.99-47.48,20.54-51.29,22.74-8.69,5.02-11.67,16.14-6.65,24.83,5.02,8.69,16.14,11.67,24.83,6.65,3.81-2.2,42.07-29.37,45.34-33.05,3.75-4.22,4.4-10.25,1.62-15.05-2.77-4.8-8.32-7.26-13.85-6.12Z" fill="#f8f8f8"/><path d="M192.8,145.62c-8.69-5.02-19.81-2.04-24.83,6.65-5.02,8.69-2.04,19.81,6.65,24.83,3.81,2.2,46.47,21.75,51.29,22.74,5.53,1.14,11.07-1.32,13.85-6.12,2.77-4.8,2.12-10.83-1.62-15.05-3.27-3.68-41.53-30.85-45.34-33.05Z" fill="#f8f8f8"/><path d="M268.14,94.43c-10.04,0-18.18,8.14-18.18,18.18,0,4.4,4.4,51.12,5.95,55.79,1.78,5.35,6.68,8.93,12.22,8.93s10.44-3.58,12.22-8.93c1.55-4.67,5.95-51.39,5.95-55.79,0-10.04-8.14-18.18-18.18-18.18Z" fill="#f8f8f8"/></svg>