<?xml version="1.0" encoding="UTF-8"?><svg id="a" xmlns="http://www.w3.org/2000/svg" width="512" height="640" viewBox="0 0 512 640"><polygon points="386.64 384 258.64 640 130.64 384 386.64 384" fill="#1f6063"/><rect y=".78" width="512" height="512" rx="64" ry="64" fill="#1f6063"/><path d="M252.13,314.65c0,24.17-8.79,43.22-25.64,53.47,0,0,25.64,32.96,27.1,35.16,3.66-1.47,7.33-4.4,11.72-8.06,16.85-15.38,30.77-42.49,30.77-71.05v-156.76h-44.68l.73,147.24Z" fill="#f8f8f8"/><path d="M197.19,260.44c19.05-7.33,27.1-26.37,27.1-43.95,0-36.63-24.17-49.08-52.01-49.08h-71.05v199.98h68.86c39.56,0,60.07-24.91,60.07-61.53.73-24.17-16.12-40.29-32.96-45.42ZM145.92,206.97h15.38c11.72,0,17.58,8.79,17.58,19.05s-4.4,19.05-16.85,19.05h-16.12v-38.09ZM161.3,327.1h-15.38v-44.68h14.65c15.38,0,18.31,12.45,18.31,22.71.73,12.45-5.13,21.98-17.58,21.98Z" fill="#f8f8f8"/><path d="M326.85,234.07s20.51-31.5,51.28-65.19c8.06-9.52,16.12-17.58,23.44-25.64,19.05-19.05,34.43-32.96,34.43-32.96,0,0-26.37,14.65-50.54,32.96-.73.73-2.2,1.47-2.93,2.2-27.84,21.24-46.88,39.56-46.88,39.56l-21.24-21.98,13.19,69.59-.73,1.47Z" fill="#f8f8f8"/><path d="M364.94,276.56c0-5.86,6.59-8.06,13.92-8.06,9.52.73,17.58,5.86,27.1,10.99l13.19-30.77c-13.19-7.33-25.64-12.45-46.15-12.45-29.3,0-48.35,19.05-48.35,44.68,0,42.49,57.14,27.1,57.14,49.08,0,4.4-5.13,8.06-11.72,8.06-11.72,0-27.84-8.79-37.36-15.38l-13.92,32.23c16.85,10.26,34.43,15.38,50.54,15.38,32.23,0,54.94-17.58,54.94-45.42-.73-44.68-59.33-27.84-59.33-48.35Z" fill="#f8f8f8"/></svg>