<?xml version="1.0" encoding="UTF-8"?>
<svg xmlns="http://www.w3.org/2000/svg" xmlns:xlink="http://www.w3.org/1999/xlink" width="512" height="640" viewBox="0 0 512 640">
  <polygon points="386.64 384 258.64 640 130.64 384" fill="#CC0000"/>
  <rect y=".78" width="512" height="512" rx="64" ry="64" fill="#CC0000"/>
  <g transform="translate(93.4,50) scale(3.7552)">
    <path fill="#f8f8f8" d="M24.3,0c-2.6,0-5.2,1-7.1,3L2.9,17.3C-1,21.2-1,27.6,2.9,31.6l40.4,40.3l40.3-40.4
      c3.9-3.9,3.9-10.3,0-14.3L69.3,3c-2-2-4.6-3-7.1-3C59.6,0,57,1,55,3L43.3,14.8L31.5,3C29.5,1,26.9,0,24.3,0L24.3,0z"/>
  </g>
  <g transform="translate(11,365) scale(0.6203)">
    <path fill="#f8f8f8" d="M311.5,37h8.8v5.4h0.2c2.8-3.8,6.8-6.5,12.6-6.5c10.7,0,17.8,8.6,17.8,21.8c0,13.3-7,21.7-17.8,21.7
		c-5.7,0-9.5-2.1-12.3-5.9h-0.2v19.9h-9V37z M341.6,57.9c0-8.3-3.2-14.5-10.4-14.5c-7.7,0-11,6.5-11,14.5c0,8.1,3.5,13.9,11.3,13.9
		C337.9,71.8,341.6,66.4,341.6,57.9z M365.8,42.5h0.2c3-4.2,6.6-6.5,12.4-6.5c8.6,0,14,5.8,14,14.6v27.7h-9V51.7c0-4.8-3-7.8-8-7.8
		c-5.5,0-9.6,4.2-9.6,10.2v24.2h-9V21h9V42.5z M424.7,72.9c-2.3,3.2-5.9,6.2-12.8,6.2c-8,0-13.8-4.1-13.8-12.1
		c0-9.4,7.4-11.9,16.9-13.3c6.2-1,9.7-1.5,9.7-5.2c0-3.5-2.8-5.7-7.8-5.7c-5.5,0-8.2,2.2-8.4,7h-8.6c0.2-7.5,5.4-13.7,16.9-13.7
		c11.1,0,16.8,4.6,16.8,14.2v18c0,3,0.6,4.2,3.5,3.7h0.2v5.8c-0.9,0.5-2.1,0.9-4.2,0.9C428.1,78.8,425.5,77.1,424.7,72.9L424.7,72.9z
		 M424.8,63.4v-6.5c-2,1.2-5.1,2-8.1,2.6c-5.9,1.3-9.4,2.4-9.4,7.2c0,4.5,3,5.8,6.9,5.8C421.3,72.6,424.8,67.7,424.8,63.4z
		 M451.2,43.8h0.2c2.5-4.4,5.8-7.1,11-7.1c1.2,0,1.9,0.1,2.6,0.3v8.2h-0.2c-0.6-0.2-1.3-0.2-2.2-0.2c-6.2,0-11.1,4.2-11.1,12.1v21.1
		h-9V37h8.8V43.8z M469.3,37h8.8v5.7h0.2c2.3-3.8,6.5-6.7,12-6.7c5.1,0,9.2,2.8,11.1,7.3h0.2c2.7-4.6,7.3-7.3,12.5-7.3
		c8.1,0,13.1,5.3,13.1,14.1v28.2h-9.1v-27c0-4.9-2.8-7.5-6.8-7.5c-4.9,0-8.6,4-8.6,9.8v24.6h-9v-27c0-4.9-2.6-7.5-6.6-7.5
		c-4.7,0-8.7,4-8.7,9.8v24.6h-9V37z M559.4,72.9c-2.3,3.2-5.9,6.2-12.8,6.2c-8,0-13.8-4.1-13.8-12.1c0-9.4,7.4-11.9,16.9-13.3
		c6.2-1,9.7-1.5,9.7-5.2c0-3.5-2.8-5.7-7.8-5.7c-5.5,0-8.2,2.2-8.4,7h-8.6c0.2-7.5,5.4-13.7,16.9-13.7c11.1,0,16.8,4.6,16.8,14.2v18
		c0,3,0.6,4.2,3.5,3.7h0.2v5.8c-0.9,0.5-2.1,0.9-4.2,0.9C562.9,78.8,560.2,77.1,559.4,72.9L559.4,72.9z M559.5,63.4v-6.5
		c-2,1.2-5.1,2-8.1,2.6c-5.9,1.3-9.4,2.4-9.4,7.2c0,4.5,3,5.8,6.9,5.8C556,72.6,559.5,67.7,559.5,63.4z M574.9,57.6
		c0-12.2,7.8-21.7,20.2-21.7c10.3,0,16.8,5.9,18.2,14.7h-9c-0.8-4.4-4.1-7.4-9-7.4c-7.5,0-11.4,5.9-11.4,14.3
		c0,8.3,3.8,14.3,11.3,14.3c5.4,0,8.8-2.9,9.4-8.2h8.8c-0.7,9.2-7.4,15.7-18.1,15.7C582.9,79.4,574.9,69.8,574.9,57.6z M618.6,93.4
		V86h0.2c1,0.3,2.2,0.5,3.6,0.5c3.4,0,5-1.2,6.2-4.6l1.7-4.7L614.8,37h9.6l7.6,21.5c1.3,3.6,2.7,8.6,2.7,8.6h0.2c0,0,1.3-5,2.6-8.6
		l7.3-21.5h9.3l-16.6,45.4c-3.1,8.8-6.2,11.5-13.3,11.5C622.1,94,620.4,93.8,618.6,93.4z M254.9,56.8c1.1,5.1,4,6.9,10,6.9
		c5.3,0,8.2-1.9,8.2-4.9c0-4.3-3.9-4.6-12-6.7c-9.5-2.5-15.6-4.6-18.4-6.6c-5.3-3.7-7.8-9-7.8-15.7c0-13.2,10.4-21.8,28.5-21.8
		c17.6,0,27.9,7.7,29.1,21.5h-20.7c-0.7-4.1-3.5-6-8.8-6c-4.6,0-6.9,1.5-6.9,4.6c0,3.6,3.5,4.3,10.1,6c8.5,2.2,15.2,3.5,19.5,6.5
		c6,4,8.7,8.9,8.7,15.9c0,14.8-10.6,23.5-30.4,23.5c-18.3,0-29-8.6-30.4-23.2H254.9z M174.5,51.6c-1.2,17.9-13,28.4-32.6,28.4
		c-21.8,0-35-13.8-35-36c0-22.3,13.4-36,34.6-36c19.8,0,31.4,10,32.7,27.7h-20.8c-0.6-6.9-4.5-10.6-11.6-10.6
		c-8.6,0-12.8,6.3-12.8,18.9c0,12.4,4.6,18.8,13.5,18.8c6.6,0,10.8-4,11.5-11.3H174.5z M169.8,10h22.3L203.6,54L215.9,10h21.5
		l-22.9,68.2h-21.8L169.8,10z M36.8,8.1c-2.6,0-5.2,1-7.1,3L15.4,25.4c-3.9,3.9-3.9,10.3,0,14.3L55.8,80l40.3-40.4
		c3.9-3.9,3.9-10.3,0-14.3L81.8,11.1c-2-2-4.6-3-7.1-3c-2.6,0-5.2,1-7.2,3L55.8,22.9L44,11.1C42,9.1,39.4,8.1,36.8,8.1L36.8,8.1z"/>
    <path fill="#f8f8f8" d="M667,36.9c-5.4,0-9.2-4-9.2-9.4c0-5.6,4.3-9.4,9.2-9.4c4.9,0,9.2,3.7,9.2,9.4
		C676.2,33.2,671.9,36.9,667,36.9z M667,19.8c-4.1,0-7.2,3.2-7.2,7.7c0,4.3,2.8,7.7,7.2,7.7c4,0,7.2-3.2,7.2-7.7
		C674.2,23,671,19.8,667,19.8z M665.2,32.9h-1.7V22.6h3.9c2.5,0,3.8,0.9,3.8,3c0,1.9-1.1,2.7-2.7,2.8l2.9,4.6h-1.9l-2.7-4.4h-1.6
		V32.9z M667.1,27.1c1.3,0,2.4-0.1,2.4-1.6c0-1.3-1.2-1.4-2.3-1.4h-2.1v3H667.1z"/>
  </g>
</svg>
