<?xml version="1.0" encoding="UTF-8"?>
<svg xmlns="http://www.w3.org/2000/svg" xmlns:xlink="http://www.w3.org/1999/xlink" width="512" height="640" viewBox="0 0 512 640">
  <polygon points="386.64 384 258.64 640 130.64 384" fill="#FF6E1A"/>
  <rect y=".78" width="512" height="512" rx="64" ry="64" fill="#FF6E1A"/>
  <g transform="translate(80,221.9) scale(0.6820)">
 <g>
  <path fill="#f8f8f8" d="M36.3,2.1H15.4C6.5,2.1,0,8.6,0,17.5v65.1c0,8.9,6.5,15.4,15.4,15.4h20.9C66.1,97.9,87,78.2,87,50
		C87,21.8,66.1,2.1,36.3,2.1z M37.3,72.5H26.6V27.5h10.7c13.6,0,23.1,9.2,23.1,22.5C60.4,63.3,50.9,72.5,37.3,72.5z">
  </path>
  <path fill="#f8f8f8" d="M176.6,13.6C176.6,5.7,171,0,163.3,0C155.6,0,150,5.8,150,13.6v44.7c0,8.6-6.5,15.4-14.8,15.4
		c-8.3,0-14.8-6.8-14.8-15.4V13.6c0-7.9-5.6-13.6-13.3-13.6c-7.7,0-13.3,5.7-13.3,13.6v45.9c0,23.9,17,40.5,41.4,40.5
		c24.4,0,41.4-16.7,41.4-40.5V13.6z">
  </path>
  <path fill="#f8f8f8" d="M352.7,75.2l-22.6-25.6l21.1-24.7c3.1-3.6,4.7-7.2,4.7-10.5c0-8-6.2-14.4-14-14.4c-4,0-7.7,2.2-11.4,6.7
		l-23.8,31.9v-25c0-8.1-5.4-13.6-13.3-13.6c-8,0-13.3,5.5-13.3,13.6v72.8c0,8.1,5.4,13.6,13.3,13.6c8,0,13.3-5.5,13.3-13.6V61.2
		l25.6,32.5c3.7,4.5,6.9,6.3,10.9,6.3c7.9,0,13.6-6,13.6-14.4C356.8,81.9,355.3,78.1,352.7,75.2z">
  </path>
  <path fill="#f8f8f8" d="M390.2,13.6c0-8.1-5.4-13.6-13.3-13.6c-8,0-13.3,5.5-13.3,13.6v72.8c0,8.1,5.4,13.6,13.3,13.6
		c8,0,13.3-5.5,13.3-13.6V13.6z">
  </path>
  <path fill="#f8f8f8" d="M516.1,14.4c0.9-7.4-4.6-12-10.2-12.7c-4.7-0.6-8.2,0.9-10.6,4.2c-1.8,2.5-2.9,6.2-3.6,12.1
		c-0.7,6.1-0.6,10.2,0.2,12.9c1.2,3.6,4,5.8,7.8,6.3c7.2,0.8,10.7-5,14.8-16.8C515.3,17.9,516,15.6,516.1,14.4z">
  </path>
  <path fill="#f8f8f8" d="M212.8,49.2v37.2c0,8.1-5.4,13.6-13.3,13.6c-8,0-13.3-5.5-13.3-13.6V13.6c0-8.1,5.4-13.6,13.3-13.6
		c3.8,0,7.3,1.4,9.4,3.5c2,2.1,35.5,47.3,35.5,47.3V13.6c0-8.1,5.4-13.6,13.3-13.6c8,0,13.3,5.5,13.3,13.6v72.8
		c0,8.1-5.4,13.6-13.3,13.6c-3.8,0-7.3-1.4-9.4-3.5C246.1,94.4,212.8,49.2,212.8,49.2z">
  </path>
  <path fill="#f8f8f8" d="M426.1,49.2v37.2c0,8.1-5.4,13.6-13.3,13.6c-8,0-13.3-5.5-13.3-13.6V13.6c0-8.1,5.4-13.6,13.3-13.6
		c3.8,0,7.3,1.4,9.4,3.5c2,2.1,35.5,47.3,35.5,47.3V13.6C457.7,5.5,463,0,471,0s13.3,5.5,13.3,13.6v72.8c0,8.1-5.4,13.6-13.3,13.6
		c-3.8,0-7.3-1.4-9.4-3.5C459.5,94.4,426.1,49.2,426.1,49.2z">
  </path>
  <path fill="#f8f8f8" d="M498.4,90.1h-2.2c-0.4,0-0.7,0.3-0.7,0.7v5.3c0,0.4,0.3,0.7,0.7,0.7c0.4,0,0.7-0.3,0.7-0.7v-1.7h0.9l1.6,2.2
		c0.1,0.2,0.4,0.3,0.6,0.3c0.4,0,0.7-0.3,0.7-0.7c0-0.2-0.1-0.3-0.3-0.6l-1-1.4l0.3-0.2c0.5-0.4,0.8-1,0.8-1.7
		C500.5,91,499.6,90.1,498.4,90.1z M497.8,93.4h-1v-2.3h1c0.7,0,1.2,0.5,1.2,1.1S498.6,93.4,497.8,93.4z">
  </path>
  <path fill="#f8f8f8" d="M497.8,86.9c-3.7,0-6.7,2.9-6.7,6.5c0,3.6,3,6.5,6.7,6.5c3.7,0,6.7-2.9,6.7-6.5
		C504.6,89.9,501.6,86.9,497.8,86.9z M497.8,98.8c-3,0-5.4-2.4-5.4-5.4c0-3,2.4-5.4,5.4-5.4c3,0,5.4,2.4,5.4,5.4
		C503.2,96.4,500.8,98.8,497.8,98.8z">
  </path>
 </g>
  </g>
</svg>
