<?xml version="1.0" encoding="UTF-8"?><svg id="a" xmlns="http://www.w3.org/2000/svg" width="512" height="640" viewBox="0 0 512 640"><polygon points="386.64 384 258.64 640 130.64 384 386.64 384" fill="#1f6063"/><rect y=".78" width="512" height="512" rx="64" ry="64" fill="#1f6063"/><path d="M150.2,108.75c1.42-.99,4.45-6.28,5.7-6.52,20.04.95,41.3.6,60.73-4.76,4.1-1.13,7.93-3.5,12.31-2.96l-6.14,22.52c.61.74,1.64.67,2.49.51,2.17-.41,3.38-2.38,5.28-3.09l5.35,73.17,144.97,1.3c1.29-.35.9-17.11-1.24-19.16l-120.53-.04c-7.72-20.73-5.41-43.83-1.61-65.17l.53-.69h152.39v34.17c-8.02-5.99-14.94-13.53-23-19.52l-112.26-.03c-3.13,7.2-4.41,15.17-3.93,23.03.09,1.48.74,7.01,1.32,8.04.4.71,3.35,2.56,4.22,2.7h111.89c6.24,2.6,11.83,6.74,17.57,10.31.31.66.45,1.4.52,2.12,2.09,22.05.74,45.73,3.73,67.47,2.84,20.69,15.53,38.86,16.22,59.86-3.46,11.91-8.51,23.34-12.2,35.2h-54.12c1.64-5.8,4.2-11.4,6.32-17.07l17.09-4.48,9.03-14.05-22.01-20.51c-11.44,11.2-21.18,24.02-30.72,36.84-1.4,5.9-1.28,12.18-1.68,18.25.01.33-.38,1.02-.61,1.02h-57.58l3.87-15.86,16.59-5.38c6.79-9.58,12.98-19.74,18.93-29.9,7.15-12.22,14.3-24.62,19.2-37.96l-55.63,24.73c-16.31-.09-32.61-1.1-48.88-1.06l-13.9,28.24c-.09.71.33,1.23.59,1.82,3.75,8.65,14.75,18.3,13.6,28.21-.13,1.15-2.03,7.16-3.01,7.16h-60.43l5.27-14.46c5.33-2.16,10.33-5.08,14.2-9.39l-13.98-30.66-1.63,1.22-32.16,38.26c-.77,1.71,4.84,12.34,4.69,15.04h-53.71c2.38-6.87,4.23-17.1,10.61-21.33,2.1-1.39,4.55-1.84,6.66-3.1,7.84-11.47,15.87-22.85,23.01-34.78l-10.22-28.62c-.8-.57-7.82,1.93-9,2.5-1.29.63-7.32,5.33-8.04,4.77,9.57-23.88,18.5-48.04,25.95-72.69-2.55-4.01-6.39-7.07-9.2-10.98-1.12-1.56-3.86-5.26-3.57-7.06.22-1.38,3.57-6.57,4.73-7.11,1.85-.85,7.05,2.6,8.91,3.69,3.88,2.27,7.5,4.98,11.23,7.48l10.37-14.02-1.8-1.04h-38.63s-2.68,6.34-2.68,6.34l-11.81,1.41,2.46-17.47,21.1-1.29c1.43-7.41-4.89-13.49-6.29-20.68-.16-.84-.95-4.5.43-4.5h32.15ZM153.66,133.98c-.12-1.35-2.65-4.76-3.87-4.88-1.58-.15-6.52,1.32-8.34,1.83l-8.14,3.05h20.35Z" fill="#f8f8f8"/><path d="M403.31,367.5c.38.11.87.98,1.04,1.4,3.95,9.16,5.66,20.96,9.62,30.25.24.55.31,1.36,1.14,1.31l-1.01-32.96h12.82s.61.57.61.61v58.79h-15.06l-9.56-30.52,1.02,30.52h-13.43v-59.4c3.27.6,10-.81,12.82,0Z" fill="#f8f8f8"/><path d="M215.51,368.11c.16-.53.93-.57,1.4-.63,6.07-.71,17.87-.2,23.91.95,7.09,1.35,10.2,2.75,11.61,10.36,1.17,6.29,1.32,32.36-.08,38.36-.88,3.78-2.79,6.33-6.33,7.91-1.16.51-5.23,1.84-6.3,1.84h-23.6s-.61-.57-.61-.61v-58.18ZM230.57,416.33c2.64-.55,7.73-1.1,8.46-4.36,1.14-5.1.94-19.98.51-25.56-.44-5.66-3.26-8.09-8.97-7.92v37.84Z" fill="#f8f8f8"/><path d="M186.54,366.41c9.58-.89,18.73,2.27,21.05,12.48,1.45,6.39,1.13,25.29.61,32.37-.64,8.71-5.69,16.04-14.87,16.86-10.17.91-20.19-1.52-22.79-12.6-1.47-6.27-1.18-26.55-.62-33.58.77-9.69,7.36-14.67,16.62-15.53ZM187.72,377.36c-2.27.52-2.94,3.8-3.13,5.82-.68,7.23-.59,20.78-.02,28.08.25,3.15,1.27,6.43,5.07,6.26,3.47-.16,3.7-4.76,3.89-7.5.5-7.13.45-17.67.02-24.83-.24-3.97-.44-9.06-5.83-7.83Z" fill="#f8f8f8"/><path d="M140.55,366.4c11.13-1.15,20.6,3.61,21.64,15.55.68,7.77.63,21.89.02,29.71-.67,8.51-5.99,15.66-14.87,16.46-12.14,1.08-21.11-3.5-22.16-16.48-.64-7.83-.63-21.46-.02-29.3.71-9.07,6.32-14.99,15.39-15.94ZM140.37,378.22c-.94.93-1.63,3.61-1.76,4.95-.69,6.87-.62,21.13,0,28.06.3,3.39,1.39,6.47,5.43,6.29,3.47-.15,4.38-2.91,4.69-5.92.72-6.89.69-21.48.04-28.42-.18-1.89-.79-4.98-2.86-5.68-1.58-.53-4.31-.48-5.54.73Z" fill="#f8f8f8"/><path d="M359.88,366.4c11.45-1.19,20.62,3.81,21.64,15.96.62,7.39.82,28.05-1.21,34.58-3.02,9.71-11.21,11.94-20.57,11.2-7.4-.58-12.94-5.44-14.65-12.61-1.46-6.14-1.16-26.67-.61-33.59.71-8.92,6.62-14.62,15.39-15.53ZM361.07,377.36c-2.1.47-2.95,3.55-3.13,5.41-.69,6.91-.69,22.37,0,29.28.31,3.13,1.9,5.73,5.44,5.48,3.34-.24,4.37-3.05,4.68-5.93.73-6.74.67-21.2.04-28.01-.41-4.54-1.87-7.38-7.03-6.23Z" fill="#f8f8f8"/><polygon points="116.22 367.5 116.22 379.71 97.91 379.71 97.91 389.88 115 389.88 115 402.09 97.91 402.09 97.91 426.9 84.48 426.9 84.48 367.5 116.22 367.5" fill="#f8f8f8"/><path d="M297.71,414.7h15.46v12.21h-30.52v-58.79s.57-.61.61-.61h13.84s.61.57.61.61v46.58Z" fill="#f8f8f8"/><path d="M335.55,426.9h-14.65v-59.4h14.04s.61.57.61.61v58.79Z" fill="#f8f8f8"/></svg>