<?xml version="1.0" encoding="UTF-8"?><svg id="a" xmlns="http://www.w3.org/2000/svg" width="512" height="640" viewBox="0 0 512 640"><polygon points="386.64 384 258.64 640 130.64 384 386.64 384" fill="#1f6063"/><rect y=".78" width="512" height="512" rx="64" ry="64" fill="#1f6063"/><polygon points="80.28 379.01 67.93 379.01 67.93 427.55 80.28 427.55 80.28 407.35 95.67 407.35 95.67 427.55 108.03 427.55 108.03 379.01 95.67 379.01 95.67 396.67 80.28 396.67 80.28 379.01" fill="#f8f8f8"/><path d="M167.52,403.82c2.11-.54,4.28-.82,6.45-.82v-10.83c-5.79-.43-9.97,3.41-12.35,8.65v-7.95h-10.94v34.67h12.02v-20.78c1.23-1.5,2.93-2.53,4.82-2.94Z" fill="#f8f8f8"/><path d="M192.5,403.82c2.11-.54,4.28-.82,6.45-.82v-10.83c-5.79-.43-9.97,3.41-12.35,8.65v-8.63h-10.94v35.35h12.02v-20.78c1.23-1.5,2.93-2.53,4.82-2.94Z" fill="#f8f8f8"/><rect x="201.01" y="392.2" width="11.29" height="35.35" fill="#f8f8f8"/><path d="M245,421.57c3.84-10.12-3.53-13.43-12.35-15.7-2.92-.91-5.38-1.06-5.62-3.48-.04-.7.32-1.37.93-1.73,4.06-1.58,7.75,1,11.68,3.33l4.46-7.06c-5.49-4.58-12.93-6.06-19.76-3.92-5.96,1.77-10.1,8.62-7.76,14.53,2.48,4.32,7.49,5.21,12.43,6.82,2.82.99,5.12,1.2,5.41,3.56,0,.94-.53,2.08-3.09,2.08-4.07,0-8.17-2.08-11.87-4.49l-4.01,7.04c7.07,6.57,24.49,9.01,29.55-.99Z" fill="#f8f8f8"/><polygon points="250.39 389.68 263.42 389.68 263.42 427.55 275.05 427.55 275.05 389.68 288.01 389.68 288.01 379.01 250.39 379.01 250.39 389.68" fill="#f8f8f8"/><path d="M353.29,397.64c-5.26-5.68-15.45-6.82-22.43-3.96-9.22,3.51-13.01,14.83-9.53,23.66,2.78,7.17,10.01,11.01,17.77,10.88,8.4.09,15.56-3.87,17.93-11.95h-10.84c-2.69,5.52-13.54,4.61-13.31-2.56h24.99c.98-5.68-.48-11.93-4.58-16.08ZM332.58,406.83c-.15-3.49,2.56-6.44,6.05-6.59,3.49-.15,6.44,2.56,6.59,6.05,0,.18,0,.36,0,.54h-12.64Z" fill="#f8f8f8"/><path d="M413.72,397.64c-5.26-5.68-15.45-6.82-22.43-3.96-9.21,3.51-13,14.83-9.53,23.66,2.78,7.17,10.02,11.01,17.78,10.88,8.4.09,15.55-3.87,17.92-11.95h-10.84c-2.69,5.52-13.54,4.61-13.3-2.56h24.99c.91-5.68-.48-11.93-4.59-16.08ZM393,406.83c-.15-3.49,2.56-6.44,6.05-6.59,3.49-.15,6.44,2.56,6.59,6.05,0,.18,0,.36,0,.54h-12.64Z" fill="#f8f8f8"/><path d="M313.28,397.64c-5.26-5.68-15.45-6.82-22.43-3.96-9.21,3.51-13,14.83-9.53,23.66,2.78,7.17,10.02,11.01,17.78,10.88,8.4.09,15.55-3.87,17.93-11.95h-10.85c-2.69,5.52-13.54,4.61-13.3-2.56h24.99c.91-5.68-.48-11.93-4.59-16.08ZM292.58,406.83c0-3.49,2.82-6.32,6.31-6.32,3.49,0,6.32,2.82,6.32,6.31h0s-12.63.01-12.63.01Z" fill="#f8f8f8"/><path d="M372.02,380.28h-12.04c.33,2.9-.83,41.3.81,42.78,1.53,3.86,5.56,5.26,9.45,5.23,2.22,0,6.24-.28,8.58-2.1,0-2.19-.24-7.63-.31-9.4-2.81,1.08-6.74,1.14-6.51-2.94v-13.63h6.95v-8.85h-6.93v-11.09Z" fill="#f8f8f8"/><path d="M437.04,394.07c-2.33,1.77-4.16,4.12-5.31,6.82v-8.62h-10.94v35.35h12.02v-20.84c2.42-3.15,7.18-3.65,11.26-3.77v-10.78c-2.49-.23-4.98.42-7.03,1.84Z" fill="#f8f8f8"/><path d="M131.44,393.62c-3.84-1.94-8.36-1.99-12.25-.16-8.42,4.06-10.78,15.66-7.79,23.93,2.15,6.5,8.26,10.86,15.11,10.76,4.91.14,7.9-2.27,9.97-6.42v5.75h11.95v-34.6h-12.02v6.34c-1.02-2.35-2.76-4.31-4.98-5.59ZM136.45,407.63v6.61c-4.08,6.82-14.11,4.23-13.88-3.9.05-9.13,10.44-11.41,13.88-2.72Z" fill="#f8f8f8"/><path d="M211.66,384.17c-.08-3.51-3-5.35-6.29-5-2.76.13-4.89,2.47-4.75,5.23.12,2.57,2.18,4.63,4.75,4.75,3.29.37,6.21-1.49,6.29-4.99Z" fill="#f8f8f8"/><path d="M244.73,142.86c.33.48,2.25,0,5.04-.92,9.1-3.73,17.17-9.6,23.52-17.12,4.16-5.34,6.21-12.02,5.74-18.77-.22-2.83-.85-4.67-1.4-4.71-33.16-1.84-33.64,40.42-32.91,41.52Z" fill="#f8f8f8"/><path d="M339.85,156.15c-12.18,2.76-29.15,14.54-44.17,26.39.22-1.18.44-2.36.63-3.68s.4-3.02.59-4.49c.66-5.2.94-10.44.85-15.68-.29-13.43-3.68-22.86-8.58-28.89-3.48-4-9.55-4.43-13.55-.95-.34.29-.66.61-.95.95l-.44.44h0c-1.32,1.54-1.15,3.87.4,5.19.24.2.5.38.78.51,2.49,1.09,4.62,2.88,6.11,5.15,9.83,14.72,6.04,38.72-3.68,56.39l-1.36,1.21-7.69,6.74c-12.51-10.75-33.13-27.97-41.81-33.79-1.73-1.35-4.16-1.35-5.89,0-1.56,1.65-1.87,4.12-.77,6.11,2.5,5.93,12.15,25.77,14.72,43.18-31.58,1.91-50.83-47.19-42.66-75.27.94-3.38,2.45-6.58,4.45-9.46,11.63-16.45,24.88-4.42,37.29,2.76l.88.59c1.38.9,3.23.5,4.12-.88.33-.51.5-1.12.48-1.73,0-5.59,1.4-22.89,9.31-34.08-4.34-5.96-13.47-10.82-15.46-7.14-2.76,5.08-1.69,23.12-.55,31.84-23.59-19.29-66-13.69-54.18,44.8,1.88,9.63,5.14,18.94,9.68,27.64-3.31-1.33-6.92-2.61-11.04-3.68l-1.36-.44v-1.33c-.3-6.66-2.9-13.01-7.36-17.96-18.11-22.82-48.88-42.37-73.62-31.36-4.06,1.99-6.92,5.81-7.69,10.27-3.72,16.6,5.96,53.41,47.26,101.66,17.63,20.69,79.51,88.12,133.61,86.65,10.05-.26,18.04-3.28,21.86-8.28,12.88-16.67,7.03-34.75,0-46.97-6.07-9.91-13.8-18.7-22.86-25.99,1.48-.97,2.9-2.01,4.27-3.13,15.39,14.72,40.49,37.14,65.37,33.75,47.48-5.26,88.34-83.08,88.6-84.07-.85-.55-45.94-60.26-85.58-52.97ZM280.07,295.29c10.09,19.55,9.09,33.5,5.15,37.14-2.39,2.21-14.5.63-15.86.44l-1.73-.26c-13.25-2.06-38.39-8.65-68.65-29.85-35.48-24.88-67.62-62.35-95.44-111.34-9.5-16.78-11.85-28.64-6.92-35.23l.66-.81c4.27-4.75,12.48-5.67,23.04-2.58,19.07,5.59,40.49,22.42,41.67,38.5v2.02h-2.17c-5.72-.4-11.45.58-16.71,2.87-1.68.74-3.19,1.83-4.42,3.2-.92,1-1.43,2.32-1.44,3.68,7.36-.56,14.75-.42,22.08.4,14.45,1.36,28.42,5.91,40.89,13.32,11.71,12.22,25.32,16.93,35.37,14.72-.27,3.76-1.03,7.47-2.25,11.04-10.27-4.44-21.13-7.34-32.24-8.61-4.15-.42-8.32-.53-12.48-.33h0c-4.01.22-4.49,1.99-4.64,2.58-.3,3.41,1.07,6.76,3.68,8.98,1.59.16,3.19.16,4.79,0,2.58-.22,5.93-.48,9.86-.44,9.49.07,18.86,2.08,27.53,5.93-1.18,2.28-2.39,4.42-3.68,6.48-4.06,6.17-8.64,11.99-13.69,17.37-.98,1.72-.78,3.87.52,5.37.9,1.23,2.2,2.1,3.68,2.47.6.11,1.21.11,1.8,0,10.74-2.2,21.19-5.65,31.14-10.27,2.58-1.14,5.12-2.32,7.58-3.68,9.21,7.47,16.96,16.58,22.86,26.87ZM336.42,281.41c-21.35,2.91-44.69-14.32-58.89-27.68l-3.28-3.17h0l-3.2-3.24-.48.48h0l-1.21,1.21c-.4.4-.85.77-1.33,1.18-1.04.93-2.14,1.8-3.28,2.61l-1.51,1.1-.66.44-.88.59-.92.59-.63.37-1.07.66h0c-3.1,1.79-6.31,3.39-9.61,4.79l-.48.18h0c-1.95.85-10.82,3.9-11.78,4.16,5.63-11.08,8.17-23.48,7.36-35.89-1.58-20.1-13.36-45.64-13.44-45.9,9.53,6.59,24.33,20.76,31.99,27.42h0l1.29,1.14,1.14,1.07.92.88c1.15,1.1,2.22,2.21,3.2,3.31.7-.77,39.02-45.9,75.2-48.99,29.45-2.58,58.89,39.27,61.4,42.22-1.58,4.23-33.53,66.14-69.86,70.45Z" fill="#f8f8f8"/><circle cx="352.88" cy="196.42" r="6.22" fill="#f8f8f8"/></svg>