<?xml version="1.0" encoding="UTF-8"?>
<svg xmlns="http://www.w3.org/2000/svg" xmlns:xlink="http://www.w3.org/1999/xlink" width="512" height="640" viewBox="0 0 512 640">
  <polygon points="386.64 384 258.64 640 130.64 384" fill="#6B3728"/>
  <rect y=".78" width="512" height="512" rx="64" ry="64" fill="#6B3728"/>
  <g transform="translate(80,80) scale(1.76)">
    <path fill="#f8f8f8" d="m 22.000487,63.925093 c -4.705334,-0.01123 -9.780078,0.40625 -15.0957026,1.34375 -5.62,1 -5.4,4.320312 -4.25,7.070312 1.15,2.75 2.6607032,3.659532 7.2207032,2.519532 1.9100004,-0.510001 3.9999214,-0.998907 6.1699214,-1.378907 0,0.93 -0.260625,8.51 -0.890625,20 -0.67,12.3 1.759844,22.48836 9.089844,21.31836 7.33,-1.17 1.669062,-7.62945 -0.460938,-21.689453 A 98.27,98.27 0 0 0 41.094237,84.82939 c 2.42,-1.55 14.900235,-9.830547 5.240235,-15.560547 -5.4175,-3.2175 -13.982249,-5.319043 -24.333985,-5.34375 z m 8.654297,8.113281 c 22.34,-0.3 15.260078,8.801563 -7.419922,16.851563 a 112.71,112.71 0 0 1 -0.580078,-16.38086 c 2.54,-0.26 5.2,-0.440703 8,-0.470703 z m 116.218756,4.220703 c -1.29227,-0.01668 -1.0111,1.121797 0.4414,2.810547 3.86,4.51 2.28914,13.109219 -6.13086,18.449219 -11,6.999997 -20.49008,5.299997 -21.33007,1 a 8.09,8.09 0 0 1 -0.11915,-1.890625 c 3.57,0 6.00039,-0.08953 13.90039,-2.769531 9.30001,-3.16 11.9986,-9.62875 7.0586,-13.21875 -4.94,-3.590001 -17.15875,-1.240079 -24.21875,8.169921 -7.06,9.41 -3.99961,19.878512 5.65039,21.228512 a 19.08,19.08 0 0 0 8.5,-1 41.24,41.24 0 0 0 16.66992,-10.99023 c -1.5,6.34 -2.50031,11.88141 2.67969,13.44141 9.36,2.8 1.05,-14.430317 10.5,-26.070317 a 14.33,14.33 0 0 1 11,-5.439453 c 4.68,0.12 0.0995,-4.620468 -6.48047,-2.980469 a 23.12,23.12 0 0 0 -10.82031,6.59961 c 0,0 -2.09039,-6.309766 -6.65039,-7.259766 -0.25,-0.05125 -0.46578,-0.0777 -0.65039,-0.08008 z m -64.869146,2.667969 c -1.802227,-0.127149 -1.559454,0.961016 -0.220704,2.072265 2.590001,2.190001 3.210235,4.169688 1.490235,11.929688 -2.03,8.850001 -3.510156,13.990311 -7.160156,13.320311 -3.65,-0.67 -3.538203,-5.48101 -2.408203,-10.291014 1.129999,-4.81 0.708437,-8.45 -3.351563,-9.25 -4.06,-0.8 -4.19,2.39 -10,9 -5.81,6.610004 -12.679375,11.510394 -15.359375,9.900394 -2.68,-1.61 2.359297,-14.730316 17.279297,-20.820316 6.22,-2.53 5.37,-4.588672 2,-5.138672 -8,-1.29 -24.63,6.788516 -25,22.478518 -0.21,8.65 8.231406,13.0714 24.441406,-3.558596 0,0 1.35961,7.329216 6.849609,10.199216 5.490001,2.87 8.499141,0.32938 10.369141,0.10938 1.87,-0.22 6.091406,4.00156 8.691406,-5.14844 2.6,-9.15 9.049766,-19.74039 12.259763,-19.15039 3.21,0.59 -8.260388,13.629296 -0.15039,22.5293 4.14,4.53 11.32063,3.94945 9.14063,1.68945 A 16.56,16.56 0 0 1 107.5044,90.708296 c 3.13,-8.05 3.79085,-11.339141 -3.36915,-10.369141 -7.159997,0.97 -12.521481,9.050782 -12.521481,9.050782 0,0 0.03101,-8.530079 -8.708985,-10.330079 -0.34375,-0.07125 -0.642929,-0.114648 -0.90039,-0.132812 z M 186.14111,80.54814 c -3.94615,0.04689 -9.52836,1.5625 -14.14648,5.5 -8.21,7 -10.10984,19.3607 -5.33984,23.2207 4.77,3.86 14.99984,-1.10953 22.33984,-10.269529 0,0 0.87,8.599529 6.25,10.769529 1.75,0.71 3.39977,0.51086 2.50977,-0.86914 -2,-2.95 -3.56938,-8.10101 -2.10938,-14.541013 1.47,-6.61 1.75,-9.298829 -2,-8.298829 a 4.3,4.3 0 0 0 -1.16992,0.5 c -4.39,2.29 -5.25055,8.389063 -12.81055,15.289062 -8.05,7.35 -13.49047,4.27008 -6.73047,-6.419921 6.57,-10.43 17.91071,-9.809531 18.22071,-12.769531 0.13562,-1.295 -1.94444,-2.147798 -5.01368,-2.111328 z m -53.0332,3.832031 c 7.49367,-0.264478 7.86016,4.292187 -0.32422,6.898437 a 31.38,31.38 0 0 1 -12.31836,1.720703 14.44,14.44 0 0 1 11.04883,-8.5 c 0.5625,-0.0625 1.09417,-0.101508 1.59375,-0.11914 z m 22.51758,37.458979 a 2.8,2.8 0 1 0 2.83008,2.7793 2.78,2.78 0 0 0 -2.83008,-2.7793 z m -0.15625,0.43165 a 2.35,2.35 0 0 1 2.44531,2.34765 2.26,2.26 0 0 1 -2.28906,2.34961 2.35,2.35 0 0 1 -0.15625,-4.69726 z m -13.2793,0.35546 a 5.37,5.37 0 0 0 -0.19531,0.002 h -3.53906 v 1.3711 10.69922 1.37109 h 3.53906 a 5.29,5.29 0 0 0 3,-0.77148 c 1.03,-0.67 1.48047,-1.64883 1.48047,-3.79883 v -4.25977 c 0,-2.16 -0.48047,-3.13054 -1.48047,-3.81054 a 5.37,5.37 0 0 0 -2.80469,-0.80274 z m -81.195312,0.002 v 1.3711 10.69922 1.37109 l 3.320312,-0.13086 c 3.16,0 4.859376,-1.32937 4.859376,-3.85937 a 3.16,3.16 0 0 0 -2.628907,-3.08989 v -0.0606 a 3,3 0 0 0 2.25,-3 c 0,-2 -1.550781,-3.30078 -4.550781,-3.30078 z m 19.589844,0 v 1.3711 10.69922 1.37109 h 2 v -1.37109 -4.41993 h 1.669922 l 2.609375,5.79102 h 2.130859 l -2.820312,-6.07031 a 3.36,3.36 0 0 0 2.451171,-3.56055 c 0,-2.08 -0.961797,-3.81055 -4.841797,-3.81055 z m 19.769528,0 v 1.3711 10.69922 1.37109 h 7.00001 v -1.37109 h -5 v -4.92969 l 4.00976,-0.0293 v -1.39063 h -4 v -4.34961 h 4.86133 v -1.37109 z m 21.04102,0.0312 -3.13086,13.41016 h 2.06055 l 0.66992,-3.13086 h 3.51953 l 0.70117,3.13086 h 2 l -3.11132,-13.41016 z m 33.09961,0.40039 v 3.21875 h 0.5 v -1.40039 h 0.55078 l 0.85938,1.40039 h 0.58984 l -0.92969,-1.41992 a 0.83,0.83 0 0 0 0.84961,-0.89062 h -0.0391 c 0,-0.62 -0.37063,-0.90821 -1.14063,-0.90821 z m 0.5,0.40821 h 0.66992 c 0.56,0 0.72071,0.17047 0.7207,0.48047 0,0.31 -0.20054,0.51953 -0.81054,0.51953 h -0.58008 z m -13.14844,0.55859 a 3.5,3.5 0 0 1 1.65821,0.43164 2.57,2.57 0 0 1 1,2.3711 v 5.08007 a 2.54,2.54 0 0 1 -1,2.35938 3.4,3.4 0 0 1 -1.78907,0.42969 h -1.25 v -10.66997 h 1.25 a 3.5,3.5 0 0 1 0.13086,-0.002 z m -59.291015,0.002 h 1 c 2.43,0 3,1.08946 3,2.43945 v 0.0606 c 0,1.42 -0.679688,2.41993 -2.679688,2.41993 h -1.291015 z m -19.560547,0.0312 h 1.099609 c 1.79,0 2.679688,0.76836 2.679688,2.06836 a 2.23,2.23 0 0 1 -2.439453,2.25 h -1.339844 z m 59.720702,0.66992 h 0.0899 c 0.05,0.43 0.21859,1.20883 0.30859,1.79883 l 1.10156,5 h -2.89062 l 1.07031,-5 a 15.75,15.75 0 0 0 0.32031,-1.79883 z m -59.720702,5.06836 h 1.359375 c 1.73,0 2.730469,0.86008 2.730469,2.33008 0,1.69 -0.859453,2.57031 -2.939453,2.57031 l -1.150391,0.0312 z">
    </path>
  </g>
</svg>
