<?xml version="1.0" encoding="UTF-8"?><svg id="a" xmlns="http://www.w3.org/2000/svg" width="512" height="640" viewBox="0 0 512 640"><polygon points="386.64 384 258.64 640 130.64 384 386.64 384" fill="#1f6063"/><rect y=".78" width="512" height="512" rx="64" ry="64" fill="#1f6063"/><rect x="304.79" y="369.34" width="10.13" height="56.16" fill="#f8f8f8"/><path d="M342.36,425.51h-10.15v-41.71h10.15v41.71Z" fill="#f8f8f8"/><path d="M374.7,414.2c-3.35,6.5-6,11.47-6.14,11.47h-10.54l10.75-21.2-12.52-20.58h10.99l6.45,10.74,5.42-10.74h10.97s-5.16,10.34-10.45,20.71l12.66,21.07h-10.55l-7.04-11.47Z" fill="#f8f8f8"/><path d="M191.81,407.48l-.02-23.68h9.6c.21,7.72-.12,16.47,0,23.77,0,5.01,4.01,9.35,9.03,9.35s9.04-3.74,9.04-8.76l-.03-24.36h9.74c0,12.33-.12,14.78,0,24.02,0,10.33-8.56,18.71-18.88,18.71s-18.49-8.71-18.49-19.05" fill="#f8f8f8"/><path d="M267.5,382.74c12.21,0,22.12,9.9,22.12,22.11s-9.91,22.11-22.12,22.11-22.23-10.57-22.23-22.78l.02-34.85h10.14l-.07,17.54c3.53-2.38,7.57-4.12,12.14-4.12ZM267.43,416.57c6.44,0,11.69-5.24,11.69-11.69s-5.24-11.69-11.69-11.69-11.69,5.23-11.69,11.69,5.24,11.69,11.69,11.69Z" fill="#f8f8f8"/><path d="M154.41,367.71c12.2,0,22.1,9.91,22.1,22.12s-9.9,22.11-22.1,22.11c-4.38,0-8.49-1.12-11.92-3.32l-.02,16.96h-10.14v-36.17c0-12.21,9.88-21.7,22.09-21.7ZM154.38,401.48c6.43,0,11.64-5.2,11.64-11.63s-5.21-11.64-11.64-11.64-11.63,5.21-11.63,11.64,5.21,11.63,11.63,11.63Z" fill="#f8f8f8"/><path d="M337.75,379.42c3.46,0,6.27-2.81,6.27-6.27s-2.81-6.27-6.27-6.27-6.28,2.81-6.28,6.27,2.82,6.27,6.28,6.27Z" fill="#f8f8f8"/><path d="M267.86,162.24c-16.76,0-30.37,13.62-30.37,30.41s13.61,30.38,30.37,30.38,30.42-13.59,30.42-30.38-13.61-30.41-30.42-30.41Z" fill="#f8f8f8"/><path d="M264.07,64.78c-73.97,0-133.94,59.97-133.94,133.94s59.97,133.94,133.94,133.94,133.94-59.97,133.94-133.94-59.97-133.94-133.94-133.94ZM267.92,250.34c-11.43,0-22.17-2.92-31.14-8.66l-.06,44.29h-26.49l-.02-94.47c0-31.89,25.82-56.68,57.71-56.68s57.74,25.89,57.74,57.78-25.87,57.75-57.74,57.75Z" fill="#f8f8f8"/></svg>