<?xml version="1.0" encoding="UTF-8"?><svg id="a" xmlns="http://www.w3.org/2000/svg" width="512" height="640" viewBox="0 0 512 640"><polygon points="386.64 384 258.64 640 130.64 384 386.64 384" fill="#1f6063"/><rect y=".78" width="512" height="512" rx="64" ry="64" fill="#1f6063"/><path d="M256,64.78c-76.4,0-138.42,61.52-138.42,137.43,0,36.71,14.39,71.44,40.68,97.24,26.29,25.8,61.02,40.19,97.74,40.19,76.4,0,138.42-61.52,138.42-137.92,0-75.41-62.02-136.93-138.42-136.93ZM341.33,237.43c-14.39,34.23-48.12,56.56-85.33,56.56-50.6,0-92.28-40.68-92.28-91.78,0-37.21,22.33-70.45,57.05-84.84,34.73-14.39,74.42-6.45,100.71,19.84,26.29,26.79,34.23,65.98,19.84,100.22ZM302.14,202.21c0,25.3-20.84,45.64-46.14,45.64s-46.14-20.34-46.14-45.64,20.84-45.64,46.14-45.64,46.14,20.34,46.14,45.64h0ZM141.4,357.99v16.37h10.91v9.92h-10.91v26.79c0,4.96,1.49,6.45,6.45,6.45,1.49,0,2.98,0,4.47-.5v11.41c-2.98.5-5.95.5-8.93.5-11.41,0-16.87-3.47-16.87-12.9v-31.75h-8.93v-9.92h8.93v-16.37s14.88,0,14.88,0ZM209.86,418.52c-2.98,0-3.97-.5-3.97-4.47h0v-25.8c0-9.92-7.94-15.38-23.81-15.38s-24.81,6.45-25.3,17.86h14.88c.5-5.46,3.97-7.94,9.92-7.94,4.96,0,9.43.99,9.43,7.44,0,4.96-3.97,5.46-13.89,6.45-8.93.5-13.89,2.48-17.36,5.46s-4.96,6.95-4.96,11.41c0,10.42,7.44,16.37,18.36,16.37,8.93,0,15.38-2.98,18.85-7.44.99,4.96,4.47,6.95,11.41,6.95,1.98,0,4.47-.5,5.95-1.49l.5-9.43h0ZM191.5,407.6c0,7.94-3.97,12.4-11.91,12.4-6.45,0-8.93-2.48-8.93-6.95,0-5.95,4.47-7.44,12.4-8.43,4.96-.5,7.44-1.49,8.93-2.48v5.46h-.5ZM249.05,386.77v-13.89c-.99-.5-1.98-.5-3.47-.5-7.44,0-14.39,4.47-17.36,11.41h0v-9.92h-14.39v54.08h14.88v-24.31c0-9.92,3.97-17.36,14.88-17.36,1.98,0,3.47.5,5.46.5ZM288.74,381.31h0c-3.47-5.95-9.92-8.93-16.37-8.43-15.38,0-23.32,12.9-23.32,26.79,0,15.88,7.44,27.29,23.32,27.29,6.45.5,12.9-2.98,16.37-8.43h0v7.44c0,8.43-4.47,12.9-11.91,12.9-5.95,0-9.92-1.98-10.91-7.44h-14.88c.5,10.91,11.41,17.36,23.81,17.36,19.84,0,28.28-9.92,28.28-23.81v-50.6h-14.39v6.95ZM288.74,400.16c0,8.43-4.47,14.88-12.9,14.88s-11.91-7.44-11.91-16.37,4.47-15.38,11.91-15.38c10.42.5,12.9,9.43,12.9,16.87ZM361.18,402.15v2.98h-39.19c.5,9.43,4.96,13.89,13.4,13.89,5.46,0,10.91-3.47,11.91-6.95h12.9c-3.97,12.4-12.4,18.36-25.3,18.36-17.36,0-27.78-11.91-27.78-28.28s11.41-28.28,27.78-28.28c16.87-.99,26.29,12.4,26.29,28.28ZM346.29,395.2c-1.49-7.94-4.96-11.41-11.91-11.41-2.98,0-6.45.99-8.43,2.98-2.48,1.98-3.47,5.46-3.47,8.43,0,0,23.81,0,23.81,0ZM383.5,357.99v16.37h10.91v9.92h-10.91v26.79c0,4.96,1.49,6.45,6.45,6.45,1.49,0,2.98,0,4.47-.5v11.41c-2.98.5-5.95.5-8.93.5-11.41,0-16.87-3.47-16.87-12.9v-31.75h-8.93v-9.92h8.93v-16.37s14.88,0,14.88,0Z" fill="#f8f8f8" fill-rule="evenodd"/></svg>