<?xml version="1.0" encoding="UTF-8"?><svg id="a" xmlns="http://www.w3.org/2000/svg" width="512" height="640" viewBox="0 0 512 640"><polygon points="386.64 384 258.64 640 130.64 384 386.64 384" fill="#1f6063"/><rect y=".78" width="512" height="512" rx="64" ry="64" fill="#1f6063"/><path d="M82.52,79.32l343.98-.16c5.85-.07,6.64,2.39,7.03,7.59v340.06c-.3,3.65-.43,6.47-4.49,7.31l-344.98.27c-2.52-.06-4.73-.94-5.51-3.49-.7-116.04-.46-232.31-.12-348.38.77-1.77,2.17-2.86,4.1-3.21ZM351.42,83.69H83.51c-.06,0-.84.78-.84.84v268.36l24.78-24.41c3.45-2.59,8.58-1.92,7.81,3.29-.32,2.18-2.22,3.25-1.66,6.2.27,1.44,2.23,2.52,2.81,3.95,19.05,16.02,35.67,38.27,54.43,54.19,6.84,5.8,6.11.53,10.98.77,4.57.23,4.22,4.94,2.05,7.98-5.54,7.78-17.34,15.49-23.33,23.32-.43.57-1.08.71-.84,1.69h96.99c1.47,0,1.89-3.86.28-4.78-10.34-9-19.66-21.44-30.06-30.08-4.61-3.83-3.46-1.2-6.75-1.15-2.06.03-2.89-1.51-2.3-3.36.33-1.02,13.25-14.16,14.93-15.45.42-.32.66-.92,1.34-.78l42.49,42.47c.2,1.1-9.5,9.58-10.93,11.44-.43.57-1.08.71-.84,1.69h163.61v-164.11l-13.74,13.52c-2.16,1.13-4.61,1.03-4.25-1.95.35-2.89,2.32-2.02-.58-5.65-3.44-4.3-9.28-8.69-13.22-12.64-5.74-5.76-11.42-11.93-17.1-17.75-.99-1.01-5.97-5.11-6.17-6.24-.14-.51.26-.72.49-1.06.79-1.19,10.91-11.3,12.1-12.1.52-.35.9-.73,1.6-.47l37.19,37.06,3.69.53v-98.35l-14.41,14.01c-.73.13-5.82-4.97-5.75-5.76,5.16-7.51,6.76-15.72,4.82-24.66-.68-3.12-3.59-7.99-3.75-10.35-.23-3.3,2.72-5.71,5.81-4.07,3.16,1.67,8.22,8.87,11.59,11.45.57.43.71,1.08,1.69.84v-58.45h-59.6c-.24.98.41,1.12.84,1.69,2.25,2.94,10.73,9.48,11.8,11.81,1.37,2.98-1.15,6.5-4.43,6.17-1.71-.17-5.99-2.86-8.33-3.53-9.4-2.67-17.42-.84-25.38,4.6-1.16-1.28-5.79-4.68-5.36-6.29.37-1.42,10.76-10.36,12.59-12.75.43-.57,1.08-.71.84-1.69ZM82.67,365.53v63.51c0,.06.78.84.84.84h63.53c1.77,0,2.57-7.12-.27-8.16l-56.23-56.19c-1.28-2.44-7.18-2.4-7.88,0Z" fill="#f8f8f8"/><path d="M287.5,188.58c-.35-.31-.52-1.74-1.29-1.21l39.66,73.34c.92,2.06-1.13,4.32-3.26,3.85l-86.46-42.89c-1.67-.64-5.9-2.1-7.47-1.87s-2.58,2.26-3.91,2.84c-3.85,1.68-6.34-1.59-5.34-5.34,8.37-10.22,18.64-18.86,27.78-28.43l42.37,20.14-21.38-40.72.55-1.17c8.67-7.39,16.37-17.86,25.04-24.99,2.16-1.78,5.02-3.66,7.65-1.44,3.77,3.17-3.31,8.71.78,12.14l57.92,57.87c3.27,3.21,6.62-1.87,9.86-.89,2.56.77,3.45,3.59,2.54,5.98l-30.09,30.61c-2.13,1.78-4.69,2.92-7.05.84-3.92-3.45,3.29-7.82-.27-11.53-16.17-15.34-30.97-32.28-47.61-47.13Z" fill="#f8f8f8"/><path d="M166.69,314.98c11.19,11.32,22.35,22.87,33.74,34,2.6,2.54,9.02,9.43,11.59,10.91,3.54,2.04,5.32-1.68,8.62-1.37,3.71.35,4.14,5.61,1.76,7.88-9.91,8.17-19.05,21.27-28.95,28.95-3.96,3.07-8.66,2.29-7.86-3.34.39-2.8,3.17-3.84.8-7.61l-26.13-26.18c-.61-.44-1.05-.29-1.66,0-1.38.64-7.51,8.16-8.16,8.16-.91-1.36-5.84-4.73-5.09-6.17.86-1.66,8.38-7.29,8.15-8.64l-24.68-24.82c-4.02-4.6-7.46,2.08-11.57-.24-3.36-1.9-1.85-5.49.02-7.91,4.57-5.94,21.86-23.09,27.84-27.81,2.72-2.15,8.04-4.33,8.92.7.76,4.36-5.3,5.2.63,11.68,3.62,3.95,8.21,7.9,12.07,11.81Z" fill="#f8f8f8"/><path d="M332.66,103.4l76.05,75.66-.47,1.6-25.88,25.84c-3.64,3.65-8.93,1.56-7.76-3.82.48-2.22,2.34-2.87,1.31-6.06l-58.77-59.27c-3.75-3.78-6.97,2.79-11.23-.02-3.54-2.33-1.14-5.65.81-8.13l25.95-25.8Z" fill="#f8f8f8"/><path d="M210.74,236.15c35.73-3.66,75.31,39.14,63.51,74.73-.95,2.85-6.54,14.17-8.86,15.34-1.03.52-5.91-4.44-6.11-5.21-.28-1.08.85-2.13,1.02-3.28.45-3.06-.16-6.03-2.23-8.39-18.43-16.18-35.08-38.15-53.66-53.7-2.39-2-4.45-3.81-7.8-3.71-1.72.05-3.91,1.3-5.58.83-.95-.27-5.21-4.63-4.87-5.74.36-1.18,9.29-6.24,11.01-7.02,4.07-1.83,9.12-3.39,13.58-3.85Z" fill="#f8f8f8"/><path d="M186.45,320.52c-16.64-18.27-24.06-43.58-8.09-65.04.54-.73,2.13-3.36,2.95-3.18.94,1.25,5,4.27,5.3,5.43.27,1.07-.84,2.62-1,3.87-.48,3.74,1.06,6.22,3.32,8.95,15.31,18.55,37.72,35.24,53.72,53.64,1.7,1.35,4.03,2.68,6.25,2.79,2.02.1,4.45-1.42,5.98-1.01.72.19,4.92,4.49,4.93,5.26,0,1.31-5.64,4.69-6.95,5.43-24.21,13.8-49.18,2.74-66.39-16.16Z" fill="#f8f8f8"/><path d="M346.36,301.18c2.42,8.78-2.7,17.56-9.77,22.44-5.26-3.58.8-5.18-3.44-10.65-1.66-2.14-10.07-10.64-12.14-12.03-4.41-2.97-5.51-.04-7.47-.43-.64-.13-2.63-2.22-2.63-2.98,0-1.39,5.97-5.86,7.38-6.7,5.8-3.46,11.33-4.33,17.6-1.38,1.45.68,2.23,1.98,3.72,2.18-1.96-6.02-3.41-11.09-1.99-17.45.41-1.83,4.41-11.59,6.17-11.19.3.07,2.92,2.72,3,3.14.25,1.33-1.55,4.34.38,5.87l32.05,32.03c2.69,1.54,7.27-1.12,8.75,3.6-13.32,11.48-31.03,5.56-41.6-6.44Z" fill="#f8f8f8"/><path d="M352.4,337.85c.96.98.76,2.78-.17,3.76l-16.24,16.36c-6.66,1.8-3.3-2-3.67-4.78-.37-2.8-29.88-29.16-33.44-34.06-1.94-1.15-8.58,2.85-6.82-2.8,1.01-3.23,12.33-11.62,14.64-15.18l1.6-.47,37.19,37.06c2.12,1.96,5.26-1.58,6.92.11Z" fill="#f8f8f8"/><path d="M272.53,335.52c2.89-.78,37.33,37.78,42.84,41.92l-.47,1.6c-3.57,2.31-11.95,13.63-15.19,14.63-5.66,1.76-1.66-4.88-2.8-6.82l-32.89-32.88c-1.88-1.3-8.02,2.89-6.97-2.36.23-1.14,14.41-15.8,15.49-16.09Z" fill="#f8f8f8"/><path d="M370.53,254.53l-7.89-8.71c0-.89,6.74-7.61,7.61-7.61.78,0,3.32,2.46,3.54,3.22.67,2.33.07,4.56,1.36,7.63,1.05,2.49,3.83,5.11,4.53,7.33.34,1.06-.18,2.06.1,2.63.32.64,6.72,5.47,8.16,7.05,10.07,11.09,13.52,26.3,3.09,38.48-4.22-1.52-2.56-4.55-3.1-7.56-.74-4.19-28.78-29.14-33.55-33.91-3.41-.25-5.95.66-8.01-2.69-.21-.92,4.46-3.61,5.42-4.07,6.19-2.99,12.09-3.41,18.73-1.79Z" fill="#f8f8f8"/><path d="M179.74,173.24c-.58-.48-2.66-2.25-3.02-2.36-1.8-.53-7.14,2.4-5.67-2.5.32-1.07,13.95-14.59,15.63-15.86,1.41-1.07,3.71-2.45,4.43.13.69,2.47-2.52,2.57.35,6.35,7.55,9.93,21.11,19.28,29.25,29.21,2.1,2.51,4.04-.47,6.06.08,1.21.33,1.78,1.72,1.45,2.89-.69,2.47-14.39,13.41-16.47,16.73-5.5,1.96-3.06-1.77-3.09-4.27-.04-3.01-9.62-10.21-11.57-13.16-.92-.33-2.47-2.36-3.28-2.23-1.71.29-4.07,7.05-6.86,1.64-.92-1.78,4.18-3.67,3.48-5.63l-10.67-11.03Z" fill="#f8f8f8"/><path d="M150.84,191.45c-1.18-1.18-.34-2.44.42-3.51,1.9-2.67,12.42-13.07,15.17-15.18,1.59-1.23,3.87-2.01,4.4.65.24,1.23-2.04,3.5-.48,5.01l30.65,30.63c2.65,1.56,3.86-.72,5.01-.5.87.16,2.12,1.69,1.84,2.74-.3,1.11-14.3,15.21-16.08,16.57-.91.7-1.53,1.52-2.84,1.17-3.77-1.01.73-4.64-1.08-6.82l-30.65-30.64c-1.87-1.66-4.63,1.61-6.35-.1Z" fill="#f8f8f8"/><path d="M206.15,133.18l40.08,39.66c.13.68-.46.92-.78,1.34-1.16,1.52-13.24,13.64-14.19,13.93-5.72,1.73-.57-5.28-2.98-6.92l-30.04-30.1c-2.15-1.74-7.82,2.29-7.07-2.48.34-2.18,12.87-12.75,14.99-15.44Z" fill="#f8f8f8"/><path d="M179.23,237.26c1.33,1.33.16,2.68-.69,3.81-1.36,1.79-15.47,15.73-16.58,16.05-4.7,1.36-.77-5.33-2.24-6.82l-34.36-34.23c-.47-.46-.64-.95-.47-1.6.21-.79,10.4-10.97,11.44-11.67.52-.35.9-.73,1.6-.47l34.94,34.81c2.03,1.87,4.63-1.62,6.36.11Z" fill="#f8f8f8"/><path d="M249.52,364.27c18.37-2.5,38.82,15.56,37.23,34.41-.25,2.97-4.22,14.83-7.08,15.44-.68.14-2.79-2.01-2.95-2.63-.68-2.55,1.94-4.01-1.21-8.3-4.24-5.77-20.83-21.83-26.69-26.71-1.01-.84-2.86-2.42-4.07-2.68-3.27-.72-5.65,2.08-7.99-2.16,2.6-3.52,8.32-6.76,12.76-7.37Z" fill="#f8f8f8"/><path d="M252.74,236.56c6.49,3.85,16.21,6.74,22.18,10.98,8.23,5.85,17.01,21.58,27.85,22.18,2.81.16,7.67-1.59,9.28-.86,2.98,1.35,2.53,4.27,1.05,6.65-1.48,2.37-12.86,13.6-15.38,15.53-1.79,1.38-3.51,2.49-5.88,1.41-3.8-1.73-.91-5.78-.63-8.48,1.05-10.28-10.91-18.66-17.36-25.23-5.75-5.86-11.36-11.88-17.12-17.73-1.36-1.38-3.66-2.16-3.97-4.46Z" fill="#f8f8f8"/><path d="M375.95,110.86c8.56,7.69,16.44,17.95,25.19,25.68,1.91,2-.06,5.04-2.35,5.49-3.41.68-8.31-3.79-12.28-4.35-1.46-.21-3.48-.15-4.97,0-1.26.12-2.76,1.28-3.87,1-.39-.1-5.55-5.1-5.77-5.55-.29-.59,1.5-4.82,1.39-6.92-.23-4.41-5.36-11.81-4.93-14,.82-4.21,4.86-3.79,7.59-1.34Z" fill="#f8f8f8"/><path d="M317.52,349.59c1-.28,1.36-.02,2.16.45.96.57,9.73,9.44,10.68,10.68.34.45.87.76.84,1.43,0,.9-11.77,12.67-12.67,12.67-.76,0-2.89-2.02-3-2.63-.14-.75,1.8-3.72,2.19-4.95,1.15-3.6,1.2-6.22.28-9.89-.51-2.03-3.8-6.82-.47-7.76Z" fill="#f8f8f8"/><path d="M288.24,319.77c.68-.13.92.46,1.34.78,1.7,1.3,9.32,8.85,10.36,10.45,1.57,2.43.27,4.37-2.65,3.78-4.4-.89-5.61-2.79-11.38-2.13-2.52.29-6.04,2.82-6.75,2.82-.93,0-3.1-2.25-3.1-3.1,0-1.36,10.56-10.74,12.19-12.6Z" fill="#f8f8f8"/><path d="M247.76,146.68c.65-.21,1.3,0,1.92.2,1.25.4,11.24,10.43,11.24,11.28-1.18,1.85-10.99,12.1-12.11,12.1-.92,0-2.5-1.61-2.52-2.53-.02-1.08,1.53-2.99,1.94-4.25.86-2.65,1.17-5.21.72-8-.29-1.83-3.86-7.94-1.19-8.8Z" fill="#f8f8f8"/><path d="M397.35,210.76c.78-.21,1.03.09,1.6.47,4.04,2.72,8.44,9.6,12.66,12.66.95.81.26,2.88-.6,3.4-2.91,1.76-7.31-2.98-9.92-4.15s-12.45-1.74-10.63-5.68c.2-.44,6.41-6.57,6.88-6.7Z" fill="#f8f8f8"/><path d="M220.7,118.54c1.51,2,11.53,10.61,11.54,12.07.04,4.01-9.11-.42-12.11-.32-2.55.09-7.91,2.84-8.35,2.76-.9-.17-3.01-2.23-2.08-3.58,2.44-3.54,8.23-7.31,11-10.93Z" fill="#f8f8f8"/><path d="M294.47,338.35c.81-.23,1.53-.13,2.16.45l14.33,14.33c2.28,7.63-5.78,1.16-8.89,1-2.54-.12-4.06,2.42-6.35-1.5-1.19-2.04.21-3.29-.08-5.5-.3-2.3-4.94-7.72-1.18-8.79Z" fill="#f8f8f8"/><path d="M226.44,136.03c.81-.23,1.53-.13,2.16.45l13.21,13.21c2.06,7.31-4.34,1.81-7.11,1.48-3.41-.41-5.1,1.84-7.59-2-.89-1.37.52-2.93.36-4.81-.2-2.46-4.48-7.34-1.03-8.32Z" fill="#f8f8f8"/><path d="M121.74,217.45c4.13,2.67,2.66,6.51,4.5,10.67,1.13,2.56,4.94,5.79,4.12,8.59-.44,1.5-2.39,2.09-3.59,1l-12.61-12.68,7.58-7.58Z" fill="#f8f8f8"/><path d="M147.61,191.6l12.94,12.93c.25,7.58-6.76.45-9.85-.85-4.21-1.76-7.99-.45-10.67-4.5l7.58-7.58Z" fill="#f8f8f8"/></svg>